<svg width="154" height="77" viewBox="0 0 154 77" fill="none" xmlns="http://www.w3.org/2000/svg">
<mask id="mask0_435_206" style="mask-type:luminance" maskUnits="userSpaceOnUse" x="85" y="7" width="69" height="69">
<path d="M85 7H153.879V75.8792H85V7Z" fill="white"/>
</mask>
<g mask="url(#mask0_435_206)">
<path d="M147.421 34.9833H125.896V13.4583C125.896 9.89167 123.004 7 119.438 7C115.871 7 112.979 9.89167 112.979 13.4583V34.9833H91.4542C87.8875 34.9833 85 37.8708 85 41.4375C85 45.0042 87.8875 47.8958 91.4542 47.8958H112.979V69.4208C112.979 72.9875 115.871 75.8792 119.438 75.8792C123.004 75.8792 125.896 72.9875 125.896 69.4208V47.8958H147.421C150.988 47.8958 153.879 45.0042 153.879 41.4375C153.879 37.8708 150.988 34.9833 147.421 34.9833Z" fill="#C8CBC0"/>
</g>
<mask id="mask1_435_206" style="mask-type:luminance" maskUnits="userSpaceOnUse" x="19" y="0" width="67" height="71">
<path d="M19.6561 0H85.4395V70.525H19.6561V0Z" fill="white"/>
</mask>
<g mask="url(#mask1_435_206)">
<path fill-rule="evenodd" clip-rule="evenodd" d="M28.8228 0.00415039C24.1061 0.00415039 20.2728 3.84998 20.2728 8.58748C20.2728 9.02498 20.3103 9.46248 20.3728 9.89582C20.3728 9.89582 20.3728 9.89998 20.3728 9.90415L25.5269 41.8042C25.8519 43.8125 27.5728 45.2917 29.6019 45.3042L56.6103 45.475L65.9436 67.2292C66.8103 69.2417 69.0853 70.2375 71.1478 69.5L82.1103 65.5875C84.2686 64.8125 85.3978 62.4292 84.6311 60.2583C83.8603 58.0917 81.4853 56.9625 79.3269 57.7333L72.0269 60.3417L63.1644 39.675C62.5144 38.1542 61.0269 37.1667 59.3769 37.1542L33.1644 36.9917L32.7561 34.4875H51.2978C52.7936 34.5083 54.1894 33.7167 54.9436 32.4208C55.6978 31.1208 55.6978 29.5167 54.9436 28.2167C54.1894 26.9208 52.7936 26.1292 51.2978 26.15H31.4103L29.9478 17.0917C34.1311 16.5375 37.3644 12.9417 37.3644 8.58748C37.3644 3.84998 33.5394 0.00415039 28.8228 0.00415039Z" fill="#3C4F82"/>
</g>
<path d="M44.1938 66.9789C40.0021 72.4456 34.8771 75.5539 28.8105 76.2956C22.7563 77.0414 16.8355 75.1956 11.0438 70.7623C5.04381 66.1873 1.60631 60.9789 0.727145 55.1456C-0.160355 49.3123 1.59381 43.5248 5.99381 37.7789C8.29381 34.7581 11.1271 32.1748 14.4938 30.0289C15.1521 29.5539 15.8855 29.4039 16.6938 29.5789C17.4938 29.7456 18.1105 30.1789 18.5438 30.8789C18.9688 31.5123 19.0896 32.1914 18.9105 32.9123C18.7355 33.6248 18.3063 34.1748 17.6271 34.5623C14.8063 36.2081 12.4188 38.3081 10.4605 40.8623C7.29381 45.0081 6.11881 49.2206 6.92714 53.4956C7.72714 57.7623 10.4896 61.7039 15.2105 65.3123C19.7355 68.7789 24.2688 70.3289 28.8105 69.9623C33.3521 69.5873 37.1188 67.4414 40.1105 63.5289C42.0646 60.9748 43.4646 58.1206 44.3105 54.9623C44.4646 54.2539 44.8646 53.7039 45.5105 53.3123C46.1646 52.9123 46.8438 52.8248 47.5438 53.0456C48.3438 53.2914 48.9355 53.7706 49.3271 54.4789C49.7271 55.1914 49.8021 55.8956 49.5605 56.5956C48.3605 60.3956 46.5688 63.8581 44.1938 66.9789Z" fill="#3C4F82"/>
</svg>
