<svg width="389" height="85" viewBox="0 0 389 85" fill="none" xmlns="http://www.w3.org/2000/svg">
<mask id="mask0_421_108" style="mask-type:luminance" maskUnits="userSpaceOnUse" x="319" y="15" width="70" height="70">
<path d="M319.16 15.2542H388.04V84.1333H319.16V15.2542Z" fill="white"/>
</mask>
<g mask="url(#mask0_421_108)">
<path d="M381.581 43.2375H360.056V21.7125C360.056 18.1458 357.165 15.2542 353.598 15.2542C350.031 15.2542 347.14 18.1458 347.14 21.7125V43.2375H325.615C322.048 43.2375 319.16 46.125 319.16 49.6917C319.16 53.2583 322.048 56.15 325.615 56.15H347.14V77.675C347.14 81.2417 350.031 84.1333 353.598 84.1333C357.165 84.1333 360.056 81.2417 360.056 77.675V56.15H381.581C385.148 56.15 388.04 53.2583 388.04 49.6917C388.04 46.125 385.148 43.2375 381.581 43.2375Z" fill="#3C4F82"/>
</g>
<mask id="mask1_421_108" style="mask-type:luminance" maskUnits="userSpaceOnUse" x="77" y="0" width="67" height="71">
<path d="M77.6561 0H143.439V70.525H77.6561V0Z" fill="white"/>
</mask>
<g mask="url(#mask1_421_108)">
<path fill-rule="evenodd" clip-rule="evenodd" d="M86.8228 0.00415039C82.1061 0.00415039 78.2728 3.84998 78.2728 8.58748C78.2728 9.02498 78.3103 9.46248 78.3728 9.89582C78.3728 9.89582 78.3728 9.89998 78.3728 9.90415L83.5269 41.8042C83.8519 43.8125 85.5728 45.2917 87.6019 45.3042L114.61 45.475L123.944 67.2292C124.81 69.2417 127.085 70.2375 129.148 69.5L140.11 65.5875C142.269 64.8125 143.398 62.4292 142.631 60.2583C141.86 58.0917 139.485 56.9625 137.327 57.7333L130.027 60.3417L121.164 39.675C120.514 38.1542 119.027 37.1667 117.377 37.1542L91.1644 36.9917L90.7561 34.4875H109.298C110.794 34.5083 112.189 33.7167 112.944 32.4208C113.698 31.1208 113.698 29.5167 112.944 28.2167C112.189 26.9208 110.794 26.1292 109.298 26.15H89.4103L87.9478 17.0917C92.1311 16.5375 95.3644 12.9417 95.3644 8.58748C95.3644 3.84998 91.5394 0.00415039 86.8228 0.00415039Z" fill="#3C4F82"/>
</g>
<path d="M102.194 66.9789C98.0021 72.4456 92.8771 75.5539 86.8105 76.2956C80.7563 77.0414 74.8355 75.1956 69.0438 70.7623C63.0438 66.1873 59.6063 60.9789 58.7271 55.1456C57.8396 49.3123 59.5938 43.5248 63.9938 37.7789C66.2938 34.7581 69.1271 32.1748 72.4938 30.0289C73.1521 29.5539 73.8855 29.4039 74.6938 29.5789C75.4938 29.7456 76.1105 30.1789 76.5438 30.8789C76.9688 31.5123 77.0896 32.1914 76.9105 32.9123C76.7355 33.6248 76.3063 34.1748 75.6271 34.5623C72.8063 36.2081 70.4188 38.3081 68.4605 40.8623C65.2938 45.0081 64.1188 49.2206 64.9271 53.4956C65.7271 57.7623 68.4896 61.7039 73.2105 65.3123C77.7355 68.7789 82.2688 70.3289 86.8105 69.9623C91.3521 69.5873 95.1188 67.4414 98.1105 63.5289C100.065 60.9748 101.465 58.1206 102.31 54.9623C102.465 54.2539 102.865 53.7039 103.51 53.3123C104.165 52.9123 104.844 52.8248 105.544 53.0456C106.344 53.2914 106.935 53.7706 107.327 54.4789C107.727 55.1914 107.802 55.8956 107.56 56.5956C106.36 60.3956 104.569 63.8581 102.194 66.9789Z" fill="#3C4F82"/>
<path d="M28.4979 13.744L16.2146 49.444C16.0896 49.9565 16.2521 50.2107 16.698 50.2107H40.4146C40.923 50.2107 41.1146 49.9565 40.9813 49.444L28.698 13.744C28.698 13.6774 28.6646 13.644 28.5979 13.644C28.5313 13.644 28.4979 13.6774 28.4979 13.744ZM13.5313 57.1274L8.04795 73.0607C7.15629 75.5607 5.40212 76.8107 2.78129 76.8107C1.81462 76.8107 1.05629 76.4107 0.514619 75.6107C-0.0312149 74.8107 -0.143714 73.9607 0.181285 73.0607L22.9313 10.7607C23.3855 9.55236 24.1396 8.57736 25.198 7.84402C26.2521 7.10236 27.4188 6.72736 28.698 6.72736C29.9729 6.72736 31.1563 7.10236 32.2479 7.84402C33.3354 8.57736 34.1021 9.55236 34.548 10.7607L57.2146 72.9774C57.5229 73.9357 57.4063 74.8107 56.8646 75.6107C56.3188 76.4107 55.5354 76.8107 54.5146 76.8107C53.3021 76.8107 52.1855 76.444 51.1646 75.7107C50.1396 74.9774 49.4355 74.0357 49.048 72.8774L43.6646 57.1274C43.4729 56.619 43.0896 56.3607 42.5146 56.3607H14.5813C14.0688 56.3607 13.7188 56.619 13.5313 57.1274Z" fill="#C8CBC0"/>
<path d="M171.152 31.594C166.473 31.594 162.723 33.0523 159.902 35.9607C157.09 38.8732 155.556 42.9565 155.302 48.2107C155.302 48.7232 155.556 48.9773 156.069 48.9773H185.269C185.777 48.9773 186.035 48.7232 186.035 48.2107C185.777 42.8898 184.369 38.7898 181.802 35.9107C179.244 33.0357 175.694 31.594 171.152 31.594ZM172.102 77.7773C164.935 77.7773 159.14 75.444 154.719 70.7773C150.306 66.1023 148.102 59.7898 148.102 51.844C148.102 43.7898 150.16 37.4565 154.285 32.844C158.419 28.2357 164.04 25.9273 171.152 25.9273C177.673 25.9273 182.823 27.9107 186.602 31.8773C190.377 35.844 192.46 41.5732 192.852 49.0607C192.906 50.6065 192.39 51.9065 191.302 52.9607C190.21 54.019 188.902 54.544 187.369 54.544H156.069C155.556 54.544 155.302 54.8023 155.302 55.3107C155.556 60.4898 157.269 64.5857 160.435 67.594C163.61 70.6065 167.727 72.1107 172.785 72.1107C177.194 72.1107 181.223 71.2773 184.869 69.6107C185.577 69.2898 186.285 69.2732 186.985 69.5607C187.694 69.8523 188.177 70.344 188.435 71.044C188.69 71.8232 188.656 72.594 188.335 73.3607C188.01 74.1273 187.469 74.6732 186.702 74.994C182.344 76.8482 177.477 77.7773 172.102 77.7773Z" fill="#C8CBC0"/>
<path d="M220.881 72.0107C224.59 72.0107 227.435 71.294 229.415 69.8607C231.402 68.419 232.398 66.3523 232.398 63.6607C232.398 61.094 231.515 59.1107 229.748 57.7107C227.99 56.3023 224.906 55.2107 220.498 54.444C214.098 53.2898 209.485 51.5107 206.665 49.1107C203.852 46.7107 202.448 43.469 202.448 39.3773C202.448 35.2773 204.065 32.0107 207.298 29.5773C210.531 27.144 215.056 25.9273 220.881 25.9273C225.935 25.9273 230.669 26.8232 235.081 28.6107C235.848 28.9357 236.419 29.4857 236.798 30.2607C237.185 31.0273 237.252 31.8232 236.998 32.644C236.806 33.3565 236.373 33.8898 235.698 34.244C235.031 34.5898 234.348 34.6023 233.648 34.2773C229.548 32.5565 225.29 31.694 220.881 31.694C217.169 31.694 214.335 32.369 212.381 33.7107C210.423 35.0565 209.448 36.944 209.448 39.3773C209.448 41.6773 210.298 43.5023 211.998 44.844C213.698 46.1898 216.785 47.244 221.265 48.0107C227.785 49.1023 232.469 50.894 235.315 53.394C238.169 55.8857 239.598 59.3065 239.598 63.6607C239.598 68.019 237.948 71.4607 234.648 73.994C231.356 76.519 226.769 77.7773 220.881 77.7773C215.056 77.7773 209.806 76.6565 205.131 74.4107C204.365 74.0232 203.785 73.419 203.398 72.594C203.019 71.7607 202.956 70.9273 203.215 70.094C203.402 69.3857 203.848 68.8898 204.548 68.6107C205.256 68.3232 205.931 68.3357 206.565 68.644C211.173 70.8898 215.948 72.0107 220.881 72.0107Z" fill="#C8CBC0"/>
<path d="M268.497 72.0107C272.206 72.0107 275.051 71.294 277.031 69.8607C279.018 68.419 280.014 66.3523 280.014 63.6607C280.014 61.094 279.131 59.1107 277.364 57.7107C275.606 56.3023 272.522 55.2107 268.114 54.444C261.714 53.2898 257.101 51.5107 254.281 49.1107C251.468 46.7107 250.064 43.469 250.064 39.3773C250.064 35.2773 251.681 32.0107 254.914 29.5773C258.147 27.144 262.672 25.9273 268.497 25.9273C273.551 25.9273 278.285 26.8232 282.697 28.6107C283.464 28.9357 284.035 29.4857 284.414 30.2607C284.801 31.0273 284.868 31.8232 284.614 32.644C284.422 33.3565 283.989 33.8898 283.314 34.244C282.647 34.5898 281.964 34.6023 281.264 34.2773C277.164 32.5565 272.906 31.694 268.497 31.694C264.785 31.694 261.951 32.369 259.997 33.7107C258.039 35.0565 257.064 36.944 257.064 39.3773C257.064 41.6773 257.914 43.5023 259.614 44.844C261.314 46.1898 264.401 47.244 268.881 48.0107C275.401 49.1023 280.085 50.894 282.931 53.394C285.785 55.8857 287.214 59.3065 287.214 63.6607C287.214 68.019 285.564 71.4607 282.264 73.994C278.972 76.519 274.385 77.7773 268.497 77.7773C262.672 77.7773 257.422 76.6565 252.747 74.4107C251.981 74.0232 251.401 73.419 251.014 72.594C250.635 71.7607 250.572 70.9273 250.831 70.094C251.018 69.3857 251.464 68.8898 252.164 68.6107C252.872 68.3232 253.547 68.3357 254.181 68.644C258.789 70.8898 263.564 72.0107 268.497 72.0107Z" fill="#C8CBC0"/>
<path d="M310.83 8.56067V11.6273C310.83 12.6523 310.472 13.5357 309.763 14.2773C309.063 15.0107 308.201 15.3773 307.18 15.3773C306.155 15.3773 305.272 15.0107 304.53 14.2773C303.797 13.5357 303.43 12.6523 303.43 11.6273V8.56067C303.43 7.52734 303.797 6.644 304.53 5.91067C305.272 5.17734 306.155 4.81067 307.18 4.81067C308.201 4.81067 309.063 5.17734 309.763 5.91067C310.472 6.644 310.83 7.52734 310.83 8.56067ZM310.83 30.6273V73.0607C310.83 74.094 310.472 74.9773 309.763 75.7107C309.063 76.444 308.201 76.8107 307.18 76.8107C306.155 76.8107 305.272 76.444 304.53 75.7107C303.797 74.9773 303.43 74.094 303.43 73.0607V30.6273C303.43 29.6065 303.797 28.7273 304.53 27.994C305.272 27.2607 306.155 26.894 307.18 26.894C308.201 26.894 309.063 27.2607 309.763 27.994C310.472 28.7273 310.83 29.6065 310.83 30.6273Z" fill="#C8CBC0"/>
</svg>
